<svg width="222" height="240" viewBox="0 0 222 240" fill="none" xmlns="http://www.w3.org/2000/svg">
<path opacity="0.8" d="M42.0317 -8.42419C42.0317 -8.42419 17.4224 20.1057 27.0735 57.2613C36.7246 94.4169 69.0998 109.958 91.1067 131.299C102.624 142.469 106.558 158.954 115.307 172.216C143.286 214.635 208.732 208.414 234.194 175.759C256.245 147.486 259.362 112.149 244.793 66.1328C230.224 20.1161 221.605 -12.8085 177.277 -41.39C132.948 -69.9715 75.3393 -43.5934 42.0317 -8.42419Z" fill="#ECE0D5"/>
<path d="M106.8 -23.3093C106.908 -23.0411 117.128 3.63848 117.416 4.35133C117.704 5.06418 118.618 7.327 118.001 8.79336C117.384 10.2597 115.155 13.7459 115.05 13.8798C115.021 13.9216 114.985 13.9574 114.943 13.985C114.9 14.0126 114.853 14.0314 114.803 14.0404L83.3845 18.7425C83.2923 18.7562 83.1985 18.7329 83.1235 18.6777C83.0485 18.6225 82.9983 18.5399 82.984 18.4478C82.9762 18.4021 82.9778 18.3552 82.9885 18.3101C82.9992 18.2649 83.0189 18.2224 83.0464 18.185C83.0739 18.1477 83.1086 18.1162 83.1485 18.0926C83.1884 18.0689 83.2327 18.0535 83.2787 18.0474L114.535 13.3576C114.962 12.683 116.846 9.66296 117.346 8.51002C117.847 7.35708 117.032 5.28253 116.76 4.60892C116.488 3.9353 107.429 -19.6991 106.253 -22.7613L69.3868 -13.9572C69.2951 -13.9344 69.1982 -13.9488 69.1172 -13.9974C69.0362 -14.046 68.9779 -14.1248 68.955 -14.2165C68.9321 -14.3081 68.9466 -14.405 68.9952 -14.486C69.0438 -14.567 69.1226 -14.6253 69.2142 -14.6482L106.382 -23.5358C106.467 -23.5571 106.557 -23.5457 106.635 -23.5038C106.712 -23.4619 106.771 -23.3925 106.8 -23.3093Z" fill="#263238"/>
<path d="M75.9355 14.7069L76.7758 16.9006C76.8094 16.9886 76.8071 17.0863 76.7694 17.1726C76.7317 17.2589 76.6617 17.327 76.5744 17.3623C76.4866 17.3887 76.3923 17.3826 76.3087 17.3451C76.2251 17.3076 76.1578 17.2413 76.1192 17.1582L75.2762 14.958C75.2412 14.8713 75.2421 14.7742 75.2786 14.6881C75.3152 14.602 75.3844 14.534 75.4712 14.4989C75.5579 14.4639 75.655 14.4647 75.7411 14.5013C75.8272 14.5379 75.8952 14.6071 75.9302 14.6939L75.9355 14.7069Z" fill="#263238"/>
<path d="M114.974 11.9399C115.009 12.0266 115.008 12.1237 114.972 12.2098C114.935 12.2959 114.866 12.3639 114.779 12.3989C114.693 12.434 114.595 12.4331 114.509 12.3965C114.423 12.36 114.355 12.2907 114.32 12.204L102.673 -16.3713L66.8811 -8.93692L74.9039 12.0198C74.9367 12.1061 74.9344 12.2018 74.8975 12.2865C74.8606 12.3711 74.7919 12.4378 74.7063 12.4724C74.6179 12.4978 74.5235 12.4916 74.4392 12.4548C74.3549 12.418 74.2861 12.353 74.2446 12.2709L66.0752 -9.06781C66.057 -9.1163 66.0497 -9.16822 66.0538 -9.21984C66.058 -9.27147 66.0734 -9.32154 66.0991 -9.36652C66.1236 -9.41049 66.1569 -9.44896 66.1969 -9.47951C66.2369 -9.51006 66.2828 -9.53206 66.3316 -9.54412L102.825 -17.1249C102.906 -17.143 102.99 -17.1315 103.063 -17.0925C103.136 -17.0536 103.192 -16.9898 103.222 -16.9128L114.987 11.9346L114.974 11.9399Z" fill="#263238"/>
<path d="M105.715 -21.2127L116.194 6.76928C116.224 6.86154 116.218 6.96129 116.178 7.04961L114.519 10.4736C114.481 10.5591 114.411 10.6264 114.324 10.6614C114.238 10.6965 114.141 10.6963 114.054 10.6611C114.012 10.6436 113.973 10.6178 113.941 10.5851C113.908 10.5525 113.883 10.5137 113.866 10.4711C113.848 10.4285 113.84 10.3828 113.84 10.3368C113.841 10.2909 113.851 10.2455 113.869 10.2033L115.448 6.91845L105.134 -20.6357L73.1775 -13.48L71.141 -10.2919C71.1172 -10.2517 71.0855 -10.2167 71.0478 -10.1891C71.0101 -10.1615 70.9672 -10.1418 70.9217 -10.1313C70.8762 -10.1207 70.829 -10.1195 70.783 -10.1277C70.7371 -10.1359 70.6932 -10.1533 70.6541 -10.1789C70.6149 -10.2039 70.5809 -10.2365 70.5543 -10.2747C70.5276 -10.3129 70.5088 -10.356 70.4989 -10.4015C70.489 -10.447 70.4882 -10.494 70.4966 -10.5398C70.505 -10.5856 70.5224 -10.6293 70.5477 -10.6684L72.6726 -14.052C72.7253 -14.1309 72.8071 -14.1858 72.9 -14.2047L105.295 -21.4614C105.383 -21.4821 105.477 -21.4678 105.555 -21.4214C105.633 -21.3751 105.69 -21.3003 105.715 -21.2127Z" fill="#263238"/>
<path d="M113.761 4.86862L112.142 0.859629C112.142 0.859629 115.585 0.22994 118.727 -0.63581C121.869 -1.50156 125.784 -2.90033 125.784 -2.90033L122.378 1.1909L127.209 2.54871L113.761 4.86862Z" fill="#263238"/>
<path d="M188.605 171.161C188.632 171.226 188.638 171.297 188.624 171.365C188.609 171.433 188.575 171.496 188.524 171.544C188.456 171.609 188.366 171.646 188.272 171.645C188.178 171.645 188.088 171.608 188.021 171.541L174.361 157.364C173.223 157.41 172.087 157.515 170.96 157.681C170.47 157.787 169.897 158.346 169.268 159.33C169.026 159.71 160.561 172.446 159.201 174.502L176.947 190.003C176.983 190.032 177.012 190.068 177.033 190.109C177.055 190.15 177.067 190.195 177.071 190.241C177.075 190.287 177.069 190.333 177.055 190.377C177.04 190.421 177.017 190.462 176.987 190.496C176.956 190.532 176.919 190.562 176.877 190.583C176.835 190.604 176.79 190.617 176.743 190.62C176.696 190.623 176.649 190.617 176.605 190.602C176.56 190.587 176.519 190.563 176.484 190.532L158.504 174.829C158.44 174.772 158.399 174.695 158.387 174.611C158.375 174.526 158.394 174.44 158.439 174.368C158.537 174.215 168.422 159.345 168.675 158.954C169.136 158.212 169.888 157.193 170.803 156.991C171.718 156.789 174.371 156.653 174.469 156.652C174.521 156.649 174.572 156.657 174.62 156.676C174.668 156.694 174.712 156.723 174.748 156.759L188.516 171.053C188.553 171.082 188.584 171.119 188.605 171.161Z" fill="#263238"/>
<path d="M190.408 175.156C190.429 175.209 190.437 175.266 190.431 175.323C190.425 175.38 190.405 175.435 190.373 175.482L189.56 176.708C189.508 176.787 189.427 176.841 189.334 176.86C189.242 176.879 189.146 176.86 189.068 176.808C188.989 176.756 188.934 176.675 188.916 176.583C188.897 176.49 188.916 176.394 188.968 176.316L189.787 175.087C189.84 175.012 189.92 174.96 190.011 174.942C190.101 174.924 190.195 174.941 190.273 174.99C190.334 175.03 190.381 175.088 190.408 175.156Z" fill="#263238"/>
<path d="M188.596 177.881C188.617 177.934 188.625 177.992 188.619 178.049C188.613 178.106 188.593 178.16 188.561 178.207L180.651 190.096C180.623 190.138 180.587 190.174 180.543 190.201C180.5 190.227 180.452 190.244 180.402 190.25C180.351 190.256 180.3 190.25 180.252 190.234C180.203 190.219 180.159 190.193 180.121 190.158L163.076 174.321C163.014 174.266 162.974 174.191 162.963 174.108C162.952 174.026 162.971 173.943 163.017 173.874L173.441 157.439C173.492 157.361 173.571 157.306 173.662 157.285C173.752 157.263 173.848 157.279 173.928 157.326C173.967 157.351 174.001 157.384 174.028 157.422C174.054 157.46 174.073 157.504 174.083 157.549C174.093 157.595 174.094 157.642 174.085 157.687C174.077 157.733 174.06 157.777 174.034 157.816L163.749 174.011L180.303 189.385L187.986 177.839C188.039 177.762 188.12 177.71 188.211 177.693C188.303 177.676 188.397 177.696 188.474 177.748C188.526 177.78 188.569 177.826 188.596 177.881Z" fill="#263238"/>
<path d="M173.321 158.385L173.347 158.451C173.362 158.542 173.341 158.637 173.289 158.713C173.236 158.79 173.155 158.843 173.064 158.862L170.87 159.23L160.656 174.302L175.731 187.839L178.08 187.704C178.174 187.701 178.265 187.734 178.334 187.797C178.404 187.86 178.446 187.947 178.452 188.041C178.456 188.133 178.424 188.224 178.362 188.293C178.301 188.362 178.214 188.404 178.122 188.41L175.623 188.552C175.53 188.557 175.438 188.526 175.367 188.465L159.946 174.596C159.881 174.539 159.84 174.461 159.829 174.375C159.819 174.29 159.84 174.204 159.888 174.133L170.372 158.656C170.397 158.616 170.43 158.581 170.469 158.555C170.509 158.528 170.553 158.511 170.6 158.503L172.941 158.105C173.028 158.097 173.115 158.121 173.185 158.172C173.255 158.224 173.303 158.3 173.321 158.385Z" fill="#263238"/>
<path d="M170.374 160.694L168.92 162.97C168.92 162.97 167.358 161.44 165.768 160.158C164.178 158.876 162.063 157.387 162.063 157.387L165.381 157.637L164.322 154.694L170.374 160.694Z" fill="#263238"/>
<path d="M234.871 140.616L234.887 140.655C234.899 140.711 234.899 140.769 234.886 140.824C234.873 140.88 234.847 140.931 234.811 140.975L216.755 162.188C216.686 162.253 216.594 162.29 216.499 162.291C216.406 162.296 216.314 162.265 216.244 162.204L215.043 161.114C214.98 161.051 214.944 160.966 214.942 160.877C214.939 160.788 214.97 160.702 215.029 160.635C215.087 160.568 215.169 160.525 215.258 160.516C215.346 160.507 215.435 160.531 215.506 160.585L216.461 161.424L233.968 140.867L204.98 129.625C204.925 129.604 204.876 129.568 204.839 129.522L187.704 108.472L173.543 128.028L173.962 128.878C173.984 128.92 173.998 128.965 174.002 129.012C174.005 129.058 174 129.105 173.985 129.15C173.97 129.194 173.947 129.235 173.916 129.27C173.884 129.305 173.847 129.333 173.804 129.353C173.721 129.393 173.625 129.399 173.537 129.368C173.45 129.338 173.377 129.275 173.336 129.192L172.815 128.147C172.785 128.091 172.772 128.026 172.777 127.962C172.782 127.898 172.806 127.837 172.844 127.786L187.416 107.684C187.452 107.644 187.497 107.612 187.547 107.592C187.597 107.572 187.65 107.563 187.704 107.567C187.758 107.566 187.812 107.577 187.862 107.599C187.912 107.621 187.956 107.654 187.991 107.695L205.35 129.034L234.682 140.411C234.769 140.452 234.837 140.525 234.871 140.616Z" fill="#263238"/>
<path d="M231.646 141.614L231.667 141.667C231.678 141.719 231.677 141.773 231.663 141.824C231.65 141.876 231.624 141.924 231.589 141.964L214.362 162.234C214.31 162.297 214.237 162.339 214.156 162.354C214.076 162.368 213.993 162.353 213.922 162.312C213.855 162.279 207.283 158.68 200.162 158.605C193.593 158.535 189.173 155.634 188.334 150.846C188.326 150.796 188.328 150.745 188.341 150.696C188.355 150.648 188.378 150.603 188.411 150.564L203.35 132.124C203.393 132.071 203.45 132.031 203.515 132.01C203.58 131.989 203.649 131.987 203.715 132.005C203.781 132.023 203.841 132.059 203.886 132.11C203.932 132.16 203.962 132.223 203.973 132.291C204.005 132.483 204.833 137.04 209.264 136.353C214.006 135.625 221.382 137.841 224.923 138.906L225.319 139.02C227.432 139.659 229.491 140.463 231.478 141.424C231.555 141.465 231.615 141.532 231.646 141.614ZM214.003 161.572L230.755 141.875C228.928 141.019 227.042 140.296 225.112 139.712L224.716 139.598C221.244 138.536 213.945 136.341 209.372 137.07C205.389 137.682 203.92 134.571 203.459 133.129L189.052 150.891C189.896 155.22 194.034 157.839 200.171 157.909C206.665 157.979 212.706 160.902 214.003 161.572Z" fill="#263238"/>
<path d="M203.926 132.234C203.95 132.292 203.959 132.355 203.95 132.417C203.942 132.479 203.917 132.538 203.879 132.587L188.933 151.03C188.87 151.082 188.792 151.113 188.711 151.12C184.802 151.801 181.572 148.511 178.307 140.428C175.457 133.371 172.06 131.419 172.029 131.401C171.985 131.376 171.947 131.343 171.916 131.303C171.886 131.263 171.864 131.217 171.852 131.168C171.842 131.12 171.842 131.069 171.852 131.021C171.863 130.972 171.883 130.926 171.912 130.885L186.588 111.038C186.643 110.966 186.724 110.917 186.814 110.902C186.904 110.887 186.996 110.906 187.072 110.957C187.085 110.989 187.988 111.606 191.536 115.908C194.003 118.89 195.377 122.725 196.487 125.813C196.907 127.047 197.395 128.257 197.951 129.436C199.343 132.206 203.541 131.978 203.547 131.991C203.615 131.987 203.684 132.003 203.743 132.037C203.803 132.071 203.851 132.122 203.883 132.183L203.926 132.234ZM188.474 150.478L202.872 132.713C201.478 132.652 198.57 132.214 197.344 129.78C196.778 128.575 196.279 127.339 195.849 126.079C194.762 123.049 193.406 119.276 191.021 116.383C189.753 114.779 188.398 113.247 186.961 111.793L172.73 131.027C173.695 131.702 176.526 134.096 178.987 140.191C182.074 147.814 185.029 150.987 188.474 150.478Z" fill="#263238"/>
<path d="M220.475 136.443C220.505 136.515 220.511 136.596 220.491 136.672C220.463 136.762 220.401 136.837 220.318 136.882C220.236 136.927 220.138 136.938 220.048 136.912C217.955 136.289 216.152 135.853 214.559 135.47C212.66 135.104 210.808 134.525 209.039 133.743C207.618 133.008 206.305 132.079 205.14 130.982C205.107 130.95 205.081 130.912 205.063 130.87C205.045 130.827 205.036 130.782 205.036 130.736C205.035 130.69 205.044 130.644 205.062 130.602C205.08 130.559 205.106 130.521 205.138 130.489C205.205 130.423 205.294 130.386 205.388 130.385C205.481 130.384 205.571 130.42 205.639 130.484C206.755 131.528 208.008 132.414 209.365 133.117C211.082 133.865 212.879 134.415 214.72 134.758C216.322 135.145 218.102 135.598 220.246 136.215C220.299 136.232 220.348 136.262 220.388 136.301C220.427 136.341 220.457 136.389 220.475 136.443Z" fill="#263238"/>
<path d="M203.314 129.156C203.344 129.228 203.347 129.308 203.322 129.382C203.296 129.472 203.236 129.548 203.155 129.593C203.074 129.639 202.978 129.651 202.888 129.625C200.894 128.994 199.211 127.634 198.177 125.815L197.613 124.682C195.311 119.776 192.212 115.285 188.442 111.392C188.378 111.323 188.344 111.232 188.347 111.138C188.35 111.043 188.391 110.955 188.46 110.89C188.529 110.826 188.62 110.792 188.714 110.796C188.809 110.799 188.897 110.84 188.962 110.908C192.772 114.855 195.909 119.401 198.245 124.365L198.807 125.492C199.754 127.135 201.279 128.366 203.085 128.945C203.136 128.962 203.183 128.989 203.223 129.026C203.262 129.062 203.294 129.107 203.314 129.156Z" fill="#263238"/>
<path d="M215.699 156.826C215.726 156.889 215.733 156.959 215.72 157.027C215.707 157.094 215.674 157.157 215.626 157.206C215.578 157.255 215.517 157.289 215.449 157.304C215.382 157.319 215.312 157.314 215.248 157.289C211.794 156.098 208.275 155.107 204.707 154.32C197.944 152.754 194.696 150.909 193.5 147.946C193.465 147.859 193.465 147.762 193.502 147.676C193.539 147.59 193.608 147.522 193.695 147.487C193.781 147.452 193.878 147.453 193.964 147.49C194.051 147.526 194.119 147.595 194.154 147.682C195.252 150.403 198.361 152.129 204.87 153.631C208.466 154.429 212.014 155.429 215.497 156.626C215.543 156.643 215.584 156.67 215.619 156.704C215.654 156.739 215.681 156.78 215.699 156.826Z" fill="#263238"/>
<path d="M218.241 153.38C218.275 153.462 218.276 153.554 218.246 153.637C218.228 153.679 218.202 153.718 218.17 153.75C218.137 153.783 218.098 153.808 218.056 153.826C218.013 153.843 217.967 153.851 217.921 153.851C217.875 153.85 217.83 153.84 217.788 153.822C214.329 152.635 210.807 151.643 207.238 150.849C200.477 149.289 197.23 147.444 196.03 144.475C195.997 144.388 195.999 144.291 196.035 144.206C196.072 144.12 196.14 144.052 196.225 144.016C196.312 143.981 196.409 143.981 196.495 144.018C196.581 144.055 196.649 144.124 196.684 144.211C197.786 146.938 200.892 148.658 207.404 150.166C210.999 150.964 214.547 151.964 218.031 153.161C218.08 153.179 218.124 153.209 218.161 153.247C218.197 153.285 218.224 153.33 218.241 153.38Z" fill="#263238"/>
<path d="M220.782 149.935C220.806 149.998 220.812 150.066 220.799 150.133C220.786 150.199 220.754 150.26 220.707 150.308C220.66 150.357 220.601 150.391 220.535 150.407C220.469 150.422 220.4 150.419 220.337 150.396C216.88 149.21 213.361 148.216 209.794 147.42C203.026 145.863 199.779 144.018 198.579 141.049C198.546 140.962 198.548 140.866 198.584 140.78C198.621 140.695 198.689 140.627 198.774 140.59C198.861 140.555 198.958 140.556 199.044 140.592C199.13 140.629 199.198 140.698 199.233 140.785C200.335 143.512 203.441 145.232 209.95 146.733C213.546 147.535 217.095 148.538 220.579 149.735C220.625 149.752 220.667 149.779 220.702 149.813C220.737 149.848 220.764 149.889 220.782 149.935Z" fill="#263238"/>
<path d="M223.323 146.49C223.34 146.529 223.349 146.571 223.349 146.614C223.349 146.657 223.341 146.7 223.325 146.74C223.307 146.782 223.282 146.821 223.249 146.853C223.216 146.886 223.178 146.911 223.135 146.928C223.092 146.946 223.047 146.954 223.001 146.953C222.955 146.953 222.909 146.943 222.867 146.925C219.412 145.735 215.892 144.741 212.324 143.949C205.557 142.392 202.316 140.544 201.116 137.575C201.081 137.488 201.082 137.391 201.119 137.305C201.155 137.219 201.225 137.151 201.311 137.116C201.398 137.081 201.495 137.082 201.581 137.118C201.667 137.155 201.735 137.224 201.77 137.311C202.872 140.038 205.971 141.76 212.48 143.262C216.078 144.058 219.627 145.06 223.11 146.264C223.161 146.282 223.206 146.312 223.243 146.351C223.28 146.391 223.307 146.438 223.323 146.49Z" fill="#263238"/>
<path d="M191.125 144.668L191.17 144.779C191.172 144.872 191.137 144.962 191.074 145.03C191.011 145.098 190.924 145.139 190.831 145.144C190.798 145.158 187.278 145.218 185.638 141.156C182.56 133.537 179.386 129.069 177.141 129.215C177.043 129.222 176.946 129.19 176.872 129.126C176.835 129.095 176.805 129.056 176.783 129.012C176.761 128.969 176.748 128.922 176.744 128.873C176.74 128.825 176.746 128.776 176.762 128.73C176.777 128.684 176.801 128.641 176.833 128.604C176.865 128.567 176.903 128.537 176.947 128.515C176.99 128.493 177.037 128.48 177.086 128.476C180.645 128.249 184.371 136.138 186.278 140.86C187.736 144.47 190.665 144.413 190.8 144.427C190.872 144.429 190.942 144.453 191.001 144.496C191.059 144.539 191.103 144.599 191.125 144.668Z" fill="#263238"/>
<path d="M194.078 140.752C194.108 140.825 194.114 140.905 194.095 140.981C194.068 141.071 194.007 141.146 193.925 141.19C193.843 141.234 193.747 141.245 193.658 141.219C193.522 141.182 190.393 140.255 188.352 135.2C186.157 129.765 183.252 126.245 179.699 124.736C179.614 124.699 179.547 124.631 179.513 124.545C179.478 124.459 179.478 124.364 179.514 124.278C179.532 124.235 179.558 124.196 179.591 124.164C179.624 124.131 179.664 124.105 179.707 124.088C179.75 124.07 179.796 124.062 179.843 124.062C179.889 124.063 179.935 124.072 179.978 124.091C183.703 125.667 186.769 129.304 189.038 134.922C190.935 139.618 193.856 140.522 193.881 140.528C193.928 140.548 193.97 140.579 194.004 140.618C194.039 140.657 194.064 140.703 194.078 140.752Z" fill="#263238"/>
<path d="M197.351 137.612C197.369 137.66 197.376 137.712 197.374 137.763C197.372 137.809 197.361 137.854 197.341 137.896C197.322 137.938 197.294 137.975 197.259 138.006C197.225 138.037 197.185 138.061 197.141 138.076C197.098 138.091 197.051 138.097 197.005 138.094C195.636 137.943 194.336 137.41 193.256 136.554C192.176 135.699 191.359 134.556 190.899 133.258C188.691 127.79 185.613 123.465 182.67 121.68C182.63 121.656 182.595 121.625 182.567 121.588C182.539 121.551 182.519 121.508 182.507 121.463C182.496 121.418 182.494 121.371 182.502 121.325C182.509 121.279 182.526 121.235 182.551 121.195C182.601 121.117 182.679 121.06 182.769 121.038C182.859 121.016 182.955 121.029 183.035 121.076C187.457 123.755 190.467 130.306 191.553 132.994C191.964 134.168 192.697 135.202 193.667 135.98C194.638 136.758 195.807 137.248 197.042 137.394C197.109 137.397 197.174 137.419 197.229 137.457C197.284 137.496 197.326 137.55 197.351 137.612Z" fill="#263238"/>
<path d="M199.474 134.64C199.493 134.668 199.505 134.699 199.511 134.731C199.519 134.824 199.49 134.916 199.431 134.988C199.372 135.06 199.288 135.106 199.196 135.118C199.062 135.126 196.006 135.356 193.881 130.867C191.695 126.184 188.748 121.897 185.159 118.18C185.12 118.149 185.088 118.111 185.064 118.067C185.041 118.023 185.027 117.975 185.024 117.925C185.021 117.876 185.028 117.826 185.045 117.78C185.062 117.733 185.089 117.691 185.124 117.655C185.158 117.62 185.2 117.592 185.246 117.574C185.292 117.556 185.341 117.547 185.391 117.549C185.44 117.551 185.489 117.564 185.533 117.586C185.578 117.608 185.617 117.639 185.648 117.678C189.303 121.448 192.302 125.803 194.519 130.563C196.422 134.579 199.02 134.42 199.119 134.418C199.194 134.412 199.269 134.431 199.333 134.471C199.397 134.51 199.446 134.57 199.474 134.64Z" fill="#263238"/>
<path d="M71.9406 38.8286C71.9548 38.8798 71.9574 38.9335 71.9482 38.9858C71.9391 39.0382 71.9185 39.0879 71.888 39.1313L60.7155 54.3538L58.2318 75.8342C58.2269 75.8907 58.2079 75.9451 58.1764 75.9924C58.145 76.0396 58.1022 76.0782 58.052 76.1046C58.0027 76.1318 57.9476 76.1468 57.8913 76.1484C57.835 76.1499 57.7792 76.138 57.7285 76.1136L40.4918 67.7703C40.4489 67.7498 40.4106 67.7208 40.3792 67.6852C40.3478 67.6495 40.324 67.6078 40.3091 67.5627C40.2947 67.519 40.2891 67.4728 40.2928 67.4269C40.2965 67.381 40.3093 67.3363 40.3305 67.2954L40.8379 66.2918C40.8862 66.2205 40.9588 66.1694 41.0422 66.148C41.1255 66.1266 41.2138 66.1365 41.2904 66.1757C41.3671 66.2148 41.4267 66.2807 41.4581 66.3608C41.4896 66.4409 41.4906 66.5297 41.4611 66.6106L41.1189 67.2888L57.5908 75.264L60.0313 54.2042C60.0421 54.143 60.0651 54.0846 60.0988 54.0324L71.0549 39.1027L55.7764 33.1406L55.3375 33.5231C55.3025 33.5538 55.2617 33.5772 55.2176 33.5921C55.1735 33.607 55.1268 33.6131 55.0804 33.61C55.0339 33.6068 54.9885 33.5946 54.9467 33.5739C54.905 33.5532 54.8678 33.5245 54.8371 33.4895C54.8065 33.4544 54.783 33.4136 54.7681 33.3695C54.7532 33.3254 54.7472 33.2787 54.7503 33.2323C54.7534 33.1858 54.7657 33.1404 54.7864 33.0987C54.807 33.0569 54.8357 33.0197 54.8708 32.989L55.4729 32.4644C55.5217 32.4216 55.5813 32.3931 55.6453 32.382C55.7093 32.3709 55.7751 32.3777 55.8354 32.4017L71.7395 38.6131C71.7864 38.6328 71.8285 38.6622 71.8632 38.6993C71.8978 38.7364 71.9242 38.7805 71.9406 38.8286Z" fill="#263238"/>
<path d="M58.4398 53.6374C58.4617 53.6739 58.4777 53.7137 58.4873 53.7552C58.4876 53.8242 58.4679 53.8919 58.4307 53.9501C58.3935 54.0083 58.3403 54.0545 58.2776 54.0833C58.1598 54.1308 55.3495 55.4408 56.5466 58.1598C57.864 61.2333 57.6459 66.532 57.5692 69.0731L57.5597 69.3508C57.5011 70.8733 57.3249 72.389 57.0326 73.8844C57.0215 73.9369 56.9986 73.9862 56.9656 74.0285C56.9326 74.0708 56.8904 74.1051 56.8422 74.1286C56.7933 74.1523 56.7396 74.1643 56.6853 74.1638C56.631 74.1633 56.5775 74.1503 56.5291 74.1257L40.0272 66.1703C39.9555 66.1303 39.8996 66.067 39.8688 65.9909C39.8381 65.9147 39.8343 65.8303 39.8581 65.7518C40.588 62.5492 40.6162 59.2267 39.9409 56.0122C38.8403 51.5732 40.031 48.08 43.1213 46.6722C43.1664 46.6516 43.2154 46.6407 43.2651 46.6403C43.3147 46.6399 43.3639 46.65 43.4094 46.6699L58.3002 53.4048C58.3748 53.4616 58.4247 53.5449 58.4398 53.6374ZM55.8268 58.3364C55.4819 57.5271 55.4461 56.6193 55.7263 55.7854C56.0065 54.9515 56.5831 54.2495 57.3467 53.8127L43.2389 47.3778C40.5517 48.6912 39.5941 51.7632 40.5743 55.8476C41.2785 59.0787 41.2723 62.4242 40.5559 65.6525L56.4019 73.3023C56.6364 71.9888 56.7785 70.6605 56.8274 69.3271L56.837 69.0494C56.9295 66.5474 57.1256 61.3261 55.8691 58.441L55.8268 58.3364Z" fill="#263238"/>
<path d="M69.6116 38.8642C69.6444 38.9451 69.6484 39.0348 69.6229 39.1183C69.5917 39.1917 69.3034 39.9091 67.087 42.9722C65.5094 45.1307 63.1913 46.7363 61.3239 48.0077C60.5783 48.4952 59.8591 49.0218 59.1693 49.5853C57.6285 50.9683 58.4703 53.6177 58.4822 53.6662C58.5043 53.7306 58.5073 53.8 58.4908 53.8661C58.4743 53.9321 58.439 53.992 58.3892 54.0385C58.3366 54.0837 58.2724 54.1131 58.2038 54.1233C58.1352 54.1335 58.0651 54.1241 58.0017 54.0961L43.1436 47.348C43.0673 47.3128 43.0069 47.2504 42.9741 47.1731C41.8118 44.6531 43.4659 41.8931 48.3367 38.2829C52.5214 35.178 53.2032 32.6282 53.2083 32.6033C53.2207 32.5543 53.243 32.5083 53.274 32.4683C53.305 32.4283 53.3439 32.3951 53.3883 32.3709C53.4335 32.3487 53.4828 32.3361 53.5331 32.3342C53.5834 32.3322 53.6336 32.3408 53.6803 32.3594L69.3857 38.6816C69.434 38.6947 69.479 38.7177 69.5179 38.7491C69.5568 38.7805 69.5887 38.8197 69.6116 38.8642ZM57.6291 53.136C57.4515 52.1123 57.351 50.2437 58.7052 49.0577C59.4075 48.4633 60.1448 47.9115 60.9132 47.4053C62.7375 46.1589 65.0008 44.6058 66.5053 42.5301C67.3216 41.4434 68.0824 40.3161 68.7848 39.1525L53.7405 33.111C53.3963 33.9727 52.2236 36.211 48.7379 38.8055C44.3414 42.0644 42.7008 44.5755 43.5593 46.7009L57.6291 53.136Z" fill="#263238"/>
<path d="M59.8214 54.5323C59.8405 54.5816 59.8485 54.6346 59.8448 54.6873C59.8411 54.7401 59.8259 54.7914 59.8001 54.8376C59.2986 55.7522 58.9263 56.732 58.6939 57.7489C58.4938 59.0152 58.4335 60.2997 58.5142 61.5792C58.5376 62.7108 58.5615 63.9943 58.5063 65.5151C58.5025 65.6083 58.4618 65.6962 58.3933 65.7595C58.3248 65.8228 58.234 65.8564 58.1407 65.8529C58.0943 65.8519 58.0485 65.8416 58.0061 65.8225C57.9637 65.8034 57.9256 65.776 57.8941 65.7419C57.8626 65.7078 57.8382 65.6676 57.8226 65.6239C57.8069 65.5801 57.8002 65.5337 57.8029 65.4873C57.8529 63.9914 57.8316 62.7144 57.8135 61.596C57.7257 60.2585 57.7906 58.9154 58.0071 57.5927C58.255 56.5109 58.6471 55.4673 59.1729 54.49C59.2211 54.4087 59.2993 54.3497 59.3906 54.3256C59.4819 54.3016 59.579 54.3144 59.661 54.3613C59.7324 54.3983 59.789 54.4587 59.8214 54.5323Z" fill="#263238"/>
<path d="M69.9638 40.038C69.9846 40.0904 69.9929 40.147 69.9878 40.2033C69.9828 40.2595 69.9646 40.3137 69.9347 40.3616C67.9638 43.5887 65.4756 46.4696 62.5696 48.8891C62.3319 49.0916 62.1138 49.2861 61.9166 49.4571C61.0141 50.3558 60.4724 51.5543 60.3941 52.8256C60.3981 52.875 60.3915 52.9247 60.3749 52.9714C60.3584 53.0181 60.3321 53.0608 60.298 53.0966C60.2638 53.1325 60.2224 53.1608 60.1766 53.1797C60.1307 53.1985 60.0814 53.2074 60.0319 53.2059C59.9824 53.2044 59.9337 53.1925 59.8891 53.1709C59.8445 53.1494 59.8049 53.1186 59.773 53.0807C59.741 53.0428 59.7174 52.9987 59.7037 52.951C59.69 52.9034 59.6865 52.8534 59.6934 52.8044C59.7649 51.3379 60.3915 49.9536 61.446 48.9321C61.6471 48.752 61.8678 48.564 62.1055 48.3615C64.9692 45.9806 67.4217 43.1449 69.365 39.968C69.3895 39.929 69.4216 39.8954 69.4593 39.8691C69.497 39.8427 69.5396 39.8242 69.5846 39.8145C69.6296 39.8049 69.6761 39.8043 69.7213 39.8128C69.7665 39.8213 69.8095 39.8388 69.8479 39.8642C69.905 39.9074 69.9459 39.9687 69.9638 40.038Z" fill="#263238"/>
<path d="M46.4602 49.7966C46.4886 49.8694 46.4921 49.9496 46.4701 50.0246C46.4481 50.0996 46.4017 50.1651 46.3384 50.2109C44.7536 51.3911 44.1524 53.7257 44.2723 58.2793C44.3656 60.816 44.3146 63.356 44.1196 65.8869C44.1178 65.9352 44.106 65.9826 44.0851 66.0262C44.0641 66.0698 44.0344 66.1086 43.9979 66.1402C43.9613 66.1718 43.9186 66.1956 43.8725 66.21C43.8263 66.2245 43.7777 66.2293 43.7296 66.2241C43.6816 66.219 43.6351 66.204 43.593 66.1801C43.551 66.1562 43.5143 66.124 43.4853 66.0853C43.4562 66.0466 43.4354 66.0025 43.4242 65.9554C43.413 65.9084 43.4115 65.8596 43.4199 65.8119C43.6089 63.3136 43.6604 60.8067 43.5743 58.3026C43.4338 53.4911 44.1157 50.9793 45.9122 49.6452C45.9495 49.6176 45.9918 49.5976 46.0369 49.5864C46.0819 49.5751 46.1287 49.5729 46.1746 49.5798C46.2205 49.5867 46.2646 49.6026 46.3043 49.6266C46.3441 49.6506 46.3787 49.6822 46.4062 49.7195L46.4602 49.7966Z" fill="#263238"/>
<path d="M49.1916 50.8914C49.2201 50.9631 49.2243 51.0423 49.2035 51.1166C49.1827 51.191 49.138 51.2565 49.0764 51.303C47.4851 52.4858 46.8904 54.8178 47.0103 59.3714C47.0998 61.9091 47.0466 64.4499 46.851 66.9816C46.8492 67.0299 46.8374 67.0773 46.8165 67.1209C46.7956 67.1645 46.7659 67.2033 46.7293 67.2349C46.6928 67.2666 46.6501 67.2903 46.6039 67.3048C46.5578 67.3192 46.5092 67.324 46.4611 67.3188C46.413 67.3137 46.3665 67.2987 46.3245 67.2748C46.2824 67.251 46.2457 67.2187 46.2167 67.18C46.1877 67.1414 46.1669 67.0972 46.1556 67.0501C46.1444 67.0031 46.143 66.9543 46.1514 66.9067C46.3442 64.4063 46.3949 61.897 46.3031 59.3908C46.1718 54.5832 46.8471 52.074 48.6436 50.74C48.6805 50.7114 48.7229 50.6906 48.7681 50.6788C48.8132 50.6671 48.8603 50.6646 48.9065 50.6715C48.9527 50.6785 48.9969 50.6947 49.0367 50.7192C49.0764 50.7438 49.1107 50.7761 49.1376 50.8143C49.1612 50.8356 49.1796 50.8619 49.1916 50.8914Z" fill="#263238"/>
<path d="M51.9233 51.9865C51.9518 52.0583 51.956 52.1374 51.9352 52.2118C51.9144 52.2861 51.8698 52.3516 51.8081 52.3981C50.2168 53.5809 49.6221 55.9129 49.7421 60.4666C49.8353 63.0033 49.7843 65.5432 49.5893 68.0741C49.5846 68.1205 49.5707 68.1654 49.5486 68.2065C49.5265 68.2475 49.4965 68.2838 49.4603 68.3132C49.4242 68.3426 49.3826 68.3647 49.338 68.378C49.2933 68.3914 49.2464 68.3958 49.2001 68.3911C49.1537 68.3863 49.1087 68.3725 49.0677 68.3503C49.0267 68.3282 48.9904 68.2982 48.961 68.2621C48.9316 68.2259 48.9095 68.1843 48.8962 68.1397C48.8828 68.095 48.8784 68.0482 48.8831 68.0018C49.076 65.5014 49.1266 62.9921 49.0349 60.4859C48.9036 55.6783 49.5789 53.1692 51.3819 51.8324C51.4192 51.8048 51.4616 51.7848 51.5066 51.7736C51.5516 51.7623 51.5984 51.7601 51.6443 51.767C51.6902 51.7739 51.7343 51.7898 51.774 51.8138C51.8138 51.8378 51.8484 51.8694 51.8759 51.9068L51.9233 51.9865Z" fill="#263238"/>
<path d="M54.6622 53.0791C54.6907 53.1519 54.6942 53.2321 54.6722 53.3071C54.6501 53.3821 54.6038 53.4476 54.5405 53.4934C52.9557 54.6735 52.3544 57.0082 52.4744 61.5618C52.5676 64.0985 52.5167 66.6385 52.3217 69.1694C52.3109 69.2625 52.2642 69.3478 52.1915 69.407C52.1188 69.4662 52.0258 69.4946 51.9324 69.4863C51.84 69.4739 51.7558 69.4267 51.6969 69.3544C51.6381 69.2821 51.6089 69.1901 51.6155 69.0971C51.8124 66.5969 51.863 64.0873 51.7672 61.5812C51.6359 56.7735 52.3178 54.2618 54.1142 52.9277C54.1515 52.9001 54.1939 52.8801 54.2389 52.8688C54.284 52.8576 54.3308 52.8554 54.3767 52.8623C54.4226 52.8692 54.4667 52.8851 54.5064 52.9091C54.5461 52.933 54.5808 52.9646 54.6083 53.002L54.6622 53.0791Z" fill="#263238"/>
<path d="M56.1757 35.3754C56.9207 37.6532 52.9509 41.1962 49.4925 43.7644C47.41 45.3129 47.9179 47.192 47.943 47.2731C47.9678 47.3628 47.9561 47.4587 47.9105 47.5398C47.8649 47.6209 47.789 47.6807 47.6995 47.7061C47.6106 47.7306 47.5156 47.7199 47.4343 47.6763C47.3529 47.6327 47.2915 47.5595 47.2626 47.4719C47.223 47.3738 46.5735 45.0498 49.0663 43.1987C53.5672 39.8595 55.9716 37.0172 55.5059 35.6003C55.491 35.5563 55.485 35.5098 55.4881 35.4635C55.4913 35.4172 55.5036 35.372 55.5242 35.3304C55.5449 35.2888 55.5736 35.2517 55.6086 35.2213C55.6436 35.1908 55.6843 35.1676 55.7283 35.1529C55.8172 35.1248 55.9135 35.1323 55.997 35.1738C56.0804 35.2153 56.1445 35.2875 56.1757 35.3754Z" fill="#263238"/>
<path d="M59.6003 36.434C59.6257 36.4934 59.6337 36.5588 59.6232 36.6225C59.2238 39.4005 57.2681 42.092 53.93 44.5812C51.185 46.6179 51.0779 48.6693 51.0793 48.6916C51.0672 48.7776 51.0238 48.8561 50.9574 48.9121C50.891 48.9681 50.8062 48.9976 50.7194 48.995C50.6326 48.9924 50.5498 48.9578 50.4869 48.8979C50.424 48.838 50.3854 48.7569 50.3785 48.6703C50.3442 48.5853 50.4596 46.2719 53.5103 44.0129C56.723 41.6276 58.5417 39.1055 58.9207 36.5031C58.9344 36.4112 58.9838 36.3284 59.0582 36.2727C59.1326 36.2171 59.2259 36.193 59.3179 36.2057C59.381 36.2153 59.4404 36.2415 59.49 36.2816C59.5396 36.3217 59.5777 36.3743 59.6003 36.434Z" fill="#263238"/>
<path d="M62.1403 37.9181C62.1728 37.9913 62.1763 38.0741 62.1503 38.1499C61.1336 41.6032 57.2725 44.7372 55.6576 45.9371C54.9686 46.4044 54.4232 47.0541 54.0824 47.8138C53.7417 48.5734 53.6191 49.4128 53.7283 50.2382C53.7466 50.3294 53.7282 50.4243 53.6769 50.502C53.6257 50.5797 53.5457 50.634 53.4546 50.653C53.3629 50.6714 53.2677 50.6535 53.189 50.6029C53.1104 50.5523 53.0545 50.473 53.0333 50.382C52.8961 49.4238 53.0299 48.4465 53.4196 47.5605C53.8092 46.6745 54.4391 45.9152 55.2379 45.3687C58.4741 42.9663 60.8067 40.191 61.4764 37.9504C61.4893 37.9053 61.5111 37.8632 61.5405 37.8266C61.5699 37.79 61.6063 37.7597 61.6476 37.7374C61.6888 37.715 61.7342 37.7011 61.7809 37.6965C61.8276 37.6919 61.8747 37.6967 61.9196 37.7106C61.97 37.7256 62.0161 37.7522 62.0545 37.7883C62.0928 37.8243 62.1222 37.8687 62.1403 37.9181Z" fill="#263238"/>
<path d="M64.8781 39.011C64.8967 39.0604 64.9045 39.1133 64.9008 39.166C64.8971 39.2187 64.8821 39.2699 64.8568 39.3163C62.9743 42.4145 60.5888 45.1774 57.7983 47.4917C55.5257 49.3985 56.0433 51.0378 56.0697 51.1032C56.0999 51.1926 56.0938 51.2903 56.0527 51.3752C56.0116 51.4601 55.9387 51.5254 55.8499 51.5571C55.8068 51.5761 55.7602 51.5854 55.7132 51.5845C55.6662 51.5836 55.6199 51.5725 55.5776 51.552C55.5353 51.5315 55.498 51.502 55.4682 51.4656C55.4384 51.4292 55.4169 51.3868 55.4052 51.3412C55.3708 51.2562 54.6658 49.1904 57.3447 46.9523C60.0643 44.6869 62.396 41.9929 64.248 38.9765C64.2952 38.896 64.3725 38.8376 64.4627 38.814C64.553 38.7904 64.6489 38.8035 64.7295 38.8504C64.7945 38.8873 64.8464 38.9434 64.8781 39.011Z" fill="#263238"/>
<path d="M126.966 152.416L126.997 152.494L127.365 155.099C127.372 155.154 127.367 155.21 127.348 155.263C127.33 155.315 127.3 155.362 127.259 155.401C127.219 155.439 127.171 155.468 127.118 155.484C127.065 155.5 127.008 155.503 126.954 155.494L105.405 151.486C105.313 151.469 105.231 151.415 105.177 151.338C105.124 151.26 105.103 151.165 105.12 151.072C105.137 150.979 105.191 150.897 105.268 150.844C105.346 150.79 105.441 150.77 105.534 150.787L126.599 154.709L126.337 152.837L105.921 148.524C105.833 148.505 105.755 148.454 105.703 148.381C105.651 148.307 105.628 148.217 105.639 148.128L108.611 126.914L105.985 125.799L103.769 148.564C103.76 148.657 103.715 148.743 103.643 148.803C103.57 148.863 103.478 148.891 103.384 148.883C103.291 148.874 103.205 148.828 103.145 148.756C103.085 148.684 103.057 148.591 103.065 148.498L105.356 125.24C105.36 125.184 105.379 125.131 105.409 125.084C105.439 125.037 105.48 124.999 105.529 124.972C105.576 124.944 105.628 124.927 105.683 124.924C105.737 124.921 105.791 124.93 105.841 124.952L109.162 126.357C109.233 126.388 109.292 126.44 109.33 126.507C109.368 126.574 109.383 126.652 109.372 126.728L106.411 147.892L126.753 152.19C126.803 152.208 126.849 152.238 126.886 152.277C126.923 152.317 126.95 152.364 126.966 152.416Z" fill="#263238"/>
<path d="M135.179 114.062C135.201 114.117 135.209 114.176 135.203 114.235L132.775 132.049C132.768 132.101 132.75 132.151 132.722 132.195C132.694 132.24 132.656 132.277 132.612 132.305L106.165 148.486C106.083 148.535 105.986 148.549 105.895 148.526C105.803 148.504 105.724 148.446 105.674 148.365C105.651 148.325 105.635 148.281 105.629 148.235C105.622 148.189 105.625 148.142 105.636 148.097C105.648 148.052 105.668 148.01 105.696 147.973C105.724 147.936 105.759 147.905 105.799 147.881L132.1 131.79L134.401 114.772L110.725 126.685C110.64 126.723 110.544 126.729 110.456 126.699C110.368 126.67 110.294 126.608 110.25 126.527C110.229 126.485 110.216 126.44 110.213 126.393C110.21 126.347 110.216 126.301 110.23 126.256C110.245 126.212 110.268 126.172 110.299 126.136C110.329 126.101 110.366 126.073 110.408 126.052L134.699 113.891C134.756 113.861 134.82 113.848 134.884 113.853C134.948 113.858 135.009 113.881 135.06 113.92C135.114 113.954 135.155 114.004 135.179 114.062Z" fill="#263238"/>
<path d="M135.178 114.062C135.2 114.118 135.208 114.179 135.2 114.239C135.192 114.299 135.168 114.355 135.132 114.404C135.096 114.452 135.048 114.49 134.993 114.514C134.938 114.539 134.877 114.549 134.817 114.543L129.53 113.978L105.823 125.606C105.782 125.627 105.736 125.638 105.69 125.641C105.644 125.644 105.597 125.638 105.553 125.623C105.465 125.592 105.392 125.528 105.351 125.443C105.309 125.359 105.304 125.262 105.334 125.173C105.365 125.085 105.429 125.012 105.513 124.971L129.335 113.288C129.396 113.263 129.462 113.252 129.528 113.256L134.875 113.82C134.944 113.826 135.009 113.852 135.063 113.895C135.117 113.939 135.157 113.997 135.178 114.062Z" fill="#263238"/>
<path d="M150.014 136.238L150.041 136.303C150.054 136.37 150.048 136.44 150.022 136.503C149.996 136.566 149.952 136.621 149.895 136.659L128.884 150.987C128.805 151.039 128.709 151.058 128.616 151.04C128.523 151.022 128.442 150.968 128.388 150.89C128.363 150.852 128.345 150.808 128.336 150.763C128.327 150.718 128.327 150.671 128.337 150.625C128.346 150.58 128.364 150.537 128.39 150.498C128.416 150.46 128.449 150.427 128.487 150.401L148.85 136.518L132.337 132.34C132.246 132.317 132.168 132.259 132.12 132.179C132.071 132.099 132.057 132.002 132.08 131.911C132.103 131.821 132.161 131.742 132.241 131.694C132.322 131.646 132.418 131.632 132.509 131.655L149.743 136.036C149.802 136.043 149.858 136.065 149.906 136.101C149.953 136.136 149.991 136.183 150.014 136.238Z" fill="#263238"/>
<path d="M150.014 136.238L150.03 136.277L150.808 139.051C150.828 139.122 150.824 139.197 150.799 139.266C150.774 139.335 150.727 139.394 150.667 139.436L127.231 155.427C127.192 155.454 127.148 155.472 127.101 155.481C127.055 155.491 127.007 155.491 126.961 155.482C126.914 155.472 126.87 155.454 126.831 155.428C126.791 155.402 126.757 155.368 126.731 155.329C126.705 155.29 126.686 155.245 126.677 155.199C126.668 155.153 126.668 155.105 126.677 155.058C126.686 155.012 126.704 154.968 126.73 154.928C126.756 154.889 126.79 154.855 126.829 154.829L150.048 138.978L149.339 136.45C149.304 136.363 149.305 136.266 149.342 136.18C149.378 136.094 149.447 136.026 149.534 135.991C149.621 135.956 149.718 135.957 149.804 135.993C149.89 136.03 149.958 136.099 149.993 136.186L150.014 136.238Z" fill="#263238"/>
<path d="M129.549 146.907C129.573 146.967 129.581 147.033 129.571 147.097C129.56 147.161 129.532 147.221 129.49 147.27C129.448 147.32 129.393 147.356 129.331 147.377C129.27 147.397 129.203 147.399 129.14 147.384L115.403 143.994C115.358 143.985 115.315 143.966 115.278 143.939C115.24 143.912 115.208 143.878 115.185 143.838C115.161 143.799 115.145 143.755 115.139 143.709C115.133 143.663 115.136 143.617 115.149 143.572C115.159 143.527 115.179 143.484 115.206 143.446C115.233 143.408 115.267 143.376 115.307 143.352C115.346 143.327 115.39 143.311 115.436 143.303C115.482 143.296 115.529 143.298 115.575 143.309L129.312 146.698C129.365 146.712 129.415 146.738 129.456 146.774C129.497 146.811 129.529 146.856 129.549 146.907Z" fill="#263238"/>
<path d="M134.334 144.29C134.361 144.358 134.367 144.432 134.352 144.504C134.328 144.594 134.269 144.671 134.189 144.719C134.109 144.767 134.014 144.781 133.923 144.76L120.188 141.377C120.143 141.367 120.1 141.348 120.062 141.32C120.024 141.293 119.992 141.258 119.968 141.218C119.944 141.178 119.928 141.133 119.922 141.087C119.916 141.041 119.919 140.994 119.931 140.949C119.955 140.859 120.012 140.783 120.091 140.735C120.17 140.688 120.264 140.673 120.354 140.694L134.088 144.077C134.144 144.09 134.195 144.116 134.238 144.153C134.281 144.19 134.314 144.237 134.334 144.29Z" fill="#263238"/>
<path d="M139.119 141.673C139.147 141.742 139.151 141.818 139.13 141.889C139.107 141.979 139.05 142.055 138.971 142.102C138.892 142.15 138.798 142.165 138.708 142.144L124.973 138.76C124.928 138.75 124.885 138.731 124.847 138.703C124.809 138.676 124.777 138.642 124.753 138.602C124.728 138.563 124.712 138.519 124.704 138.473C124.697 138.427 124.699 138.38 124.71 138.334C124.734 138.244 124.792 138.167 124.872 138.119C124.952 138.071 125.048 138.056 125.139 138.078L138.873 141.461C138.929 141.473 138.98 141.499 139.023 141.536C139.066 141.573 139.099 141.62 139.119 141.673Z" fill="#263238"/>
<path d="M143.911 139.075C143.94 139.144 143.944 139.22 143.922 139.292C143.912 139.337 143.892 139.38 143.865 139.418C143.838 139.455 143.804 139.488 143.764 139.512C143.725 139.537 143.68 139.553 143.634 139.56C143.588 139.568 143.541 139.566 143.496 139.555L129.759 136.165C129.67 136.142 129.593 136.085 129.546 136.006C129.498 135.927 129.483 135.833 129.505 135.743C129.515 135.698 129.534 135.655 129.562 135.617C129.589 135.579 129.623 135.547 129.663 135.523C129.702 135.498 129.746 135.482 129.792 135.474C129.838 135.467 129.885 135.469 129.931 135.48L143.668 138.869C143.722 138.882 143.772 138.908 143.814 138.943C143.856 138.979 143.89 139.024 143.911 139.075Z" fill="#263238"/>
<path d="M116.532 127.427C116.556 127.485 116.563 127.548 116.552 127.609L114.842 140.326C114.829 140.419 114.78 140.503 114.705 140.56C114.63 140.616 114.536 140.641 114.443 140.628C114.35 140.615 114.266 140.566 114.209 140.491C114.153 140.416 114.128 140.322 114.141 140.229L115.851 127.512C115.866 127.419 115.916 127.336 115.992 127.28C116.067 127.224 116.162 127.2 116.255 127.212C116.316 127.221 116.373 127.245 116.422 127.283C116.471 127.321 116.508 127.37 116.532 127.427Z" fill="#263238"/>
<path d="M121.253 125.52C121.276 125.577 121.285 125.639 121.28 125.7L119.57 138.417C119.568 138.466 119.555 138.514 119.534 138.558C119.512 138.603 119.481 138.642 119.443 138.673C119.405 138.705 119.361 138.728 119.313 138.742C119.266 138.755 119.216 138.758 119.167 138.751C119.118 138.744 119.072 138.727 119.03 138.701C118.988 138.675 118.952 138.64 118.925 138.599C118.897 138.558 118.879 138.512 118.87 138.463C118.862 138.414 118.863 138.365 118.875 138.317L120.585 125.6C120.599 125.508 120.648 125.425 120.723 125.37C120.797 125.314 120.89 125.29 120.982 125.303C121.043 125.312 121.099 125.338 121.146 125.376C121.194 125.414 121.231 125.464 121.253 125.52Z" fill="#263238"/>
<path d="M125.682 122.02C125.704 122.075 125.712 122.134 125.706 122.193L123.996 134.91C123.984 135.002 123.936 135.086 123.862 135.143C123.788 135.2 123.694 135.226 123.602 135.214C123.508 135.2 123.424 135.151 123.366 135.076C123.309 135.001 123.283 134.906 123.295 134.813L125.008 122.102C125.013 122.056 125.027 122.011 125.05 121.971C125.073 121.93 125.104 121.895 125.141 121.866C125.177 121.838 125.22 121.817 125.265 121.806C125.31 121.794 125.356 121.792 125.402 121.798C125.465 121.807 125.523 121.832 125.572 121.871C125.622 121.91 125.66 121.962 125.682 122.02Z" fill="#263238"/>
<path d="M130.583 119.691C130.607 119.748 130.614 119.812 130.603 119.873L128.893 132.59C128.886 132.636 128.871 132.68 128.848 132.72C128.824 132.76 128.793 132.795 128.756 132.824C128.719 132.852 128.676 132.872 128.632 132.884C128.587 132.895 128.54 132.898 128.494 132.892C128.448 132.885 128.403 132.87 128.363 132.847C128.323 132.823 128.288 132.792 128.26 132.755C128.232 132.718 128.212 132.676 128.2 132.631C128.188 132.586 128.185 132.539 128.192 132.493L129.902 119.776C129.913 119.7 129.95 119.63 130.005 119.576C130.06 119.522 130.131 119.488 130.208 119.479C130.284 119.47 130.362 119.486 130.428 119.524C130.494 119.563 130.546 119.623 130.576 119.694L130.583 119.691Z" fill="#263238"/>
<path d="M222.459 36.2281C222.533 36.2645 222.594 36.3224 222.635 36.3942C222.675 36.4661 222.693 36.5484 222.685 36.6304C222.677 36.7409 222.625 36.8435 222.541 36.9162C222.458 36.989 222.349 37.0261 222.238 37.0196L199.076 35.0804C198.103 36.0061 197.179 36.983 196.309 38.0067C195.959 38.4817 195.887 39.4225 196.097 40.7844C196.178 41.309 198.614 59.1799 199.012 62.0598L226.828 61.9932C226.882 61.9917 226.936 62.0011 226.987 62.0208C227.038 62.0405 227.084 62.0702 227.123 62.1081C227.163 62.146 227.194 62.1914 227.215 62.2415C227.236 62.2916 227.248 62.3455 227.248 62.3999C227.249 62.4552 227.239 62.5102 227.218 62.5616C227.198 62.613 227.167 62.6597 227.128 62.6991C227.089 62.7385 227.043 62.7697 226.992 62.7909C226.94 62.8121 226.886 62.8229 226.83 62.8226L198.65 62.8919C198.549 62.891 198.452 62.8546 198.376 62.789C198.3 62.7233 198.249 62.6328 198.233 62.5336C198.2 62.3215 195.359 41.4554 195.278 40.9121C195.108 39.8963 194.979 38.4082 195.632 37.5175C196.285 36.6268 198.53 34.4428 198.616 34.3649C198.659 34.3225 198.711 34.2897 198.768 34.2687C198.825 34.2477 198.886 34.239 198.947 34.2432L222.295 36.2015C222.351 36.1983 222.407 36.2074 222.459 36.2281Z" fill="#263238"/>
<path d="M228.014 42.1784C228.073 42.209 228.125 42.2536 228.163 42.3082C228.202 42.3629 228.227 42.4261 228.235 42.4924L230.498 59.0217C230.506 59.0803 230.501 59.1399 230.484 59.1964C230.467 59.2529 230.438 59.305 230.398 59.3491C230.358 59.3928 230.309 59.4275 230.254 59.4507C230.199 59.474 230.14 59.4854 230.081 59.4842L202.85 58.6901C202.753 58.6893 202.659 58.6538 202.586 58.5899C202.513 58.5261 202.465 58.4382 202.452 58.3423L198.877 35.8848C198.861 35.7771 198.887 35.6674 198.951 35.579C199.014 35.4906 199.11 35.4304 199.217 35.4109C199.271 35.4027 199.326 35.4051 199.379 35.4182C199.432 35.4313 199.482 35.4546 199.526 35.487C199.569 35.5194 199.607 35.5601 199.635 35.6068C199.663 35.6534 199.681 35.7052 199.689 35.759L203.201 57.8995L229.642 58.6648L227.445 42.6108C227.432 42.5029 227.463 42.3945 227.53 42.3093C227.597 42.224 227.695 42.1687 227.803 42.1555C227.874 42.1435 227.947 42.1515 228.014 42.1784Z" fill="#263238"/>
<path d="M199.638 36.6046L199.712 36.6419C199.797 36.7113 199.851 36.811 199.864 36.9199C199.877 37.0289 199.847 37.1387 199.781 37.2263L198.124 39.2649L200.776 60.576L224.63 60.7939L226.606 58.8412C226.686 58.7652 226.793 58.7235 226.903 58.7249C227.013 58.7264 227.118 58.7709 227.196 58.849C227.272 58.9274 227.314 59.0327 227.313 59.1421C227.312 59.2514 227.268 59.3561 227.19 59.4334L225.088 61.5089C225.01 61.5864 224.904 61.6304 224.794 61.6315L200.376 61.3909C200.275 61.3909 200.177 61.3538 200.101 61.2865C200.026 61.2193 199.977 61.1266 199.965 61.0259L197.237 39.1452C197.228 39.0902 197.231 39.0339 197.245 38.98C197.259 38.9261 197.285 38.8758 197.32 38.8326L199.085 36.6526C199.155 36.5775 199.25 36.5311 199.353 36.5222C199.455 36.5134 199.556 36.5427 199.638 36.6046Z" fill="#263238"/>
<path d="M198.877 40.9509L199.371 44.1542C199.371 44.1542 196.75 44.0108 194.299 44.1139C191.849 44.2169 188.761 44.5492 188.761 44.5492L191.95 42.1469L188.662 40.3326L198.877 40.9509Z" fill="#263238"/>
<path d="M153.901 67.2864L153.99 67.3314L156.348 69.3628C156.398 69.406 156.436 69.4604 156.461 69.5215C156.485 69.5826 156.495 69.6488 156.489 69.7146C156.484 69.7804 156.462 69.8439 156.428 69.9001C156.393 69.9563 156.345 70.0035 156.289 70.0379L133.954 83.4341C133.859 83.4918 133.744 83.5091 133.636 83.482C133.528 83.455 133.435 83.3859 133.378 83.29C133.321 83.194 133.304 83.0791 133.332 82.9704C133.359 82.8617 133.429 82.7682 133.525 82.7105L155.361 69.6183L153.669 68.1566L132.105 80.3898C132.012 80.4422 131.903 80.4579 131.8 80.4336C131.696 80.4094 131.605 80.347 131.546 80.2588L117.661 59.0207L114.451 60.0949L130.218 82.1196C130.283 82.2096 130.31 82.322 130.292 82.4321C130.274 82.5422 130.214 82.6409 130.124 82.7066C130.034 82.7723 129.922 82.7996 129.812 82.7824C129.703 82.7652 129.605 82.705 129.54 82.615L113.453 60.0916C113.414 60.0386 113.389 59.9766 113.379 59.9112C113.37 59.8458 113.377 59.779 113.399 59.7166C113.419 59.655 113.453 59.599 113.499 59.5533C113.544 59.5075 113.6 59.4735 113.662 59.454L117.717 58.0906C117.804 58.0618 117.898 58.0623 117.984 58.092C118.07 58.1218 118.144 58.1791 118.195 58.2553L132.05 79.441L153.535 67.2529C153.594 67.2294 153.658 67.2202 153.722 67.226C153.785 67.2319 153.847 67.2525 153.901 67.2864Z" fill="#263238"/>
<path d="M130.924 27.314C130.987 27.3452 131.041 27.3915 131.081 27.4487L142.919 45.1371C142.954 45.1885 142.977 45.2468 142.987 45.3078C142.996 45.3688 142.993 45.4311 142.976 45.4903L132.237 80.3228C132.203 80.4285 132.128 80.5162 132.029 80.5671C131.93 80.6179 131.814 80.6278 131.707 80.5945C131.655 80.5774 131.606 80.5502 131.564 80.5145C131.523 80.4789 131.488 80.4354 131.463 80.3866C131.438 80.3378 131.423 80.2846 131.418 80.2302C131.414 80.1757 131.42 80.1209 131.437 80.0691L142.116 45.4295L130.792 28.5464L119.158 57.4453C119.113 57.5449 119.032 57.6238 118.931 57.6659C118.83 57.708 118.716 57.7103 118.613 57.6723C118.562 57.6517 118.515 57.6212 118.476 57.5827C118.436 57.5441 118.405 57.4982 118.383 57.4477C118.362 57.3972 118.35 57.343 118.35 57.2882C118.349 57.2335 118.36 57.1792 118.38 57.1286L130.364 27.5336C130.391 27.463 130.437 27.4016 130.498 27.3566C130.559 27.3116 130.632 27.2848 130.707 27.2793C130.781 27.2682 130.857 27.2803 130.924 27.314Z" fill="#263238"/>
<path d="M130.855 27.2805C130.913 27.3103 130.962 27.3558 130.997 27.4125C131.032 27.4693 131.052 27.5354 131.055 27.6046C131.058 27.6738 131.044 27.7437 131.014 27.8077C130.984 27.8717 130.939 27.9277 130.884 27.9702L125.994 31.6595L113.984 60.142C113.963 60.192 113.932 60.2378 113.895 60.2767C113.858 60.3156 113.814 60.3469 113.766 60.3687C113.669 60.4128 113.562 60.4159 113.468 60.3773C113.374 60.3386 113.301 60.2614 113.265 60.1626C113.229 60.0638 113.232 59.9516 113.275 59.8505L125.345 31.2318C125.379 31.1624 125.428 31.1012 125.487 31.0531L130.427 27.315C130.49 27.2662 130.564 27.2368 130.64 27.2307C130.716 27.2246 130.791 27.2419 130.855 27.2805Z" fill="#263238"/>
<path d="M161.643 34.8633L161.718 34.9009C161.783 34.9499 161.831 35.017 161.858 35.0937C161.884 35.1704 161.887 35.2533 161.867 35.3318L154.359 64.5753C154.33 64.6835 154.259 64.7759 154.163 64.8324C154.066 64.889 153.951 64.9052 153.842 64.8776C153.789 64.8632 153.739 64.8386 153.696 64.805C153.652 64.7714 153.616 64.7296 153.589 64.6819C153.561 64.6342 153.544 64.5816 153.536 64.527C153.529 64.4725 153.533 64.4171 153.548 64.364L160.824 36.0261L142.831 45.2464C142.732 45.2973 142.617 45.3069 142.511 45.273C142.405 45.2391 142.317 45.1644 142.266 45.0655C142.215 44.9666 142.206 44.8515 142.24 44.7455C142.274 44.6396 142.348 44.5514 142.447 44.5005L161.243 34.8962C161.301 34.856 161.368 34.8318 161.439 34.826C161.509 34.8202 161.58 34.8331 161.643 34.8633Z" fill="#263238"/>
<path d="M161.885 34.9845L161.929 35.0067L164.741 36.8475C164.812 36.8949 164.866 36.9641 164.896 37.0456C164.926 37.127 164.931 37.2166 164.908 37.3018L156.244 70.2466C156.229 70.3015 156.204 70.3531 156.17 70.3984C156.136 70.4438 156.093 70.4821 156.045 70.5111C155.996 70.5401 155.943 70.5593 155.888 70.5675C155.833 70.5758 155.777 70.5729 155.723 70.5591C155.67 70.5453 155.62 70.5208 155.576 70.487C155.532 70.4533 155.496 70.4109 155.469 70.3624C155.441 70.3139 155.424 70.2601 155.417 70.2041C155.41 70.1482 155.414 70.0912 155.429 70.0363L164.008 37.3901L161.445 35.7126C161.347 35.6636 161.274 35.5767 161.241 35.471C161.208 35.3653 161.217 35.2495 161.268 35.1491C161.318 35.0486 161.406 34.9717 161.51 34.9353C161.615 34.8989 161.728 34.906 161.826 34.955L161.885 34.9845Z" fill="#263238"/>
<path d="M151.881 60.7434C151.95 60.7774 152.008 60.8293 152.049 60.8934C152.089 60.9575 152.112 61.0314 152.113 61.1068C152.115 61.1823 152.095 61.2564 152.057 61.321C152.018 61.3857 151.962 61.4383 151.895 61.4732L137.212 68.9655C137.165 68.9913 137.113 69.0072 137.059 69.0122C137.005 69.0172 136.951 69.0112 136.899 68.9947C136.847 68.9781 136.8 68.9513 136.758 68.9158C136.717 68.8804 136.684 68.8371 136.66 68.7886C136.634 68.7408 136.618 68.6884 136.612 68.6345C136.606 68.5806 136.611 68.5262 136.627 68.4745C136.642 68.4228 136.668 68.3749 136.703 68.3333C136.737 68.2918 136.78 68.2576 136.828 68.2327L151.511 60.7403C151.568 60.7117 151.632 60.6971 151.696 60.6976C151.76 60.6981 151.824 60.7139 151.881 60.7434Z" fill="#263238"/>
<path d="M153.479 54.4424C153.556 54.4813 153.619 54.5419 153.661 54.6163C153.71 54.7138 153.72 54.8259 153.687 54.9289C153.654 55.0319 153.582 55.1178 153.486 55.1685L138.803 62.6602C138.755 62.6858 138.702 62.7015 138.648 62.7062C138.593 62.711 138.538 62.7047 138.485 62.6878C138.433 62.6709 138.385 62.6437 138.343 62.6078C138.301 62.572 138.267 62.5283 138.243 62.4793C138.194 62.3833 138.184 62.2726 138.216 62.1707C138.248 62.0689 138.32 61.9841 138.415 61.9344L153.098 54.4427C153.156 54.4117 153.221 54.3954 153.288 54.3954C153.354 54.3953 153.42 54.4115 153.479 54.4424Z" fill="#263238"/>
<path d="M155.701 48.4539C155.78 48.4926 155.843 48.5566 155.88 48.6351C155.929 48.7311 155.939 48.8418 155.907 48.9436C155.875 49.0454 155.804 49.1302 155.708 49.1799L141.026 56.6699C140.978 56.6953 140.925 56.7109 140.871 56.7159C140.817 56.7208 140.762 56.7151 140.709 56.699C140.657 56.6828 140.608 56.6566 140.566 56.6218C140.523 56.587 140.488 56.5444 140.463 56.4963C140.413 56.3988 140.404 56.2867 140.437 56.1837C140.47 56.0807 140.542 55.9949 140.638 55.9442L155.32 48.4542C155.378 48.4232 155.444 48.407 155.51 48.4069C155.577 48.4069 155.642 48.423 155.701 48.4539Z" fill="#263238"/>
<path d="M157.914 42.4616C157.993 42.4997 158.056 42.5638 158.093 42.6427C158.119 42.6905 158.135 42.7429 158.141 42.7968C158.147 42.8507 158.142 42.9051 158.126 42.9568C158.11 43.0084 158.084 43.0564 158.05 43.0979C158.015 43.1394 157.973 43.1736 157.925 43.1986L143.242 50.6898C143.146 50.7372 143.035 50.7453 142.931 50.7122C142.828 50.6792 142.742 50.6076 142.69 50.5128C142.664 50.465 142.648 50.4126 142.642 50.3587C142.636 50.3048 142.641 50.2505 142.657 50.1988C142.673 50.1471 142.698 50.0991 142.733 50.0576C142.768 50.0161 142.81 49.9819 142.858 49.957L157.54 42.4658C157.598 42.4361 157.661 42.4202 157.726 42.4195C157.791 42.4187 157.856 42.4332 157.914 42.4616Z" fill="#263238"/>
<path d="M124.886 53.4876C124.953 53.5196 125.009 53.5708 125.047 53.6348L133.483 66.3955C133.544 66.4891 133.566 66.6035 133.543 66.7137C133.52 66.8239 133.455 66.9207 133.361 66.9829C133.267 67.0451 133.153 67.0675 133.044 67.0453C132.934 67.0231 132.838 66.9581 132.777 66.8645L124.342 54.1037C124.282 54.0088 124.262 53.8939 124.286 53.7838C124.31 53.6737 124.376 53.577 124.469 53.5145C124.531 53.4738 124.601 53.4499 124.675 53.4452C124.748 53.4405 124.821 53.4551 124.886 53.4876Z" fill="#263238"/>
<path d="M127.736 47.8154C127.801 47.8478 127.857 47.8956 127.9 47.9548L136.309 60.6948C136.346 60.7405 136.372 60.7935 136.387 60.8505C136.402 60.9074 136.405 60.967 136.396 61.0253C136.387 61.0836 136.365 61.1394 136.333 61.1891C136.301 61.2387 136.259 61.2812 136.21 61.3136C136.16 61.3461 136.105 61.3678 136.047 61.3774C135.989 61.3871 135.93 61.3843 135.873 61.3695C135.817 61.3546 135.764 61.328 135.718 61.2912C135.672 61.2545 135.635 61.2084 135.608 61.1561L127.199 48.4161C127.14 48.3229 127.119 48.2097 127.143 48.1009C127.166 47.9921 127.231 47.8965 127.323 47.835C127.384 47.7962 127.455 47.774 127.527 47.7706C127.599 47.7672 127.671 47.7826 127.736 47.8154Z" fill="#263238"/>
<path d="M128.706 41.1981C128.768 41.2302 128.822 41.2768 128.863 41.3339L137.292 54.1019C137.354 54.1946 137.376 54.3083 137.354 54.4182C137.332 54.5281 137.268 54.6251 137.176 54.688C137.082 54.7504 136.967 54.7732 136.856 54.7515C136.746 54.7297 136.649 54.6651 136.586 54.5717L128.165 41.8075C128.133 41.762 128.111 41.7104 128.1 41.656C128.088 41.6015 128.088 41.5452 128.099 41.4905C128.11 41.4358 128.132 41.3838 128.163 41.3375C128.194 41.2913 128.234 41.2518 128.281 41.2214C128.344 41.1799 128.416 41.1558 128.491 41.1517C128.565 41.1476 128.64 41.1636 128.706 41.1981Z" fill="#263238"/>
<path d="M131.548 35.5215C131.615 35.5535 131.671 35.6047 131.709 35.6686L140.146 48.4301C140.176 48.4765 140.197 48.5284 140.207 48.583C140.218 48.6376 140.217 48.6938 140.206 48.7484C140.195 48.8029 140.173 48.8548 140.141 48.9009C140.11 48.9471 140.07 48.9867 140.024 49.0175C139.978 49.0483 139.926 49.0697 139.872 49.0804C139.817 49.0911 139.761 49.091 139.707 49.08C139.653 49.069 139.601 49.0473 139.555 49.0163C139.51 48.9853 139.471 48.9454 139.44 48.8991L131.003 36.1376C130.954 36.0601 130.932 35.9684 130.939 35.8766C130.947 35.7847 130.984 35.6976 131.045 35.6286C131.106 35.5597 131.188 35.5126 131.278 35.4946C131.369 35.4766 131.462 35.4887 131.544 35.529L131.548 35.5215Z" fill="#263238"/>
</svg>
