<svg width="106" height="20" viewBox="0 0 106 20" fill="none" xmlns="http://www.w3.org/2000/svg">
<g style="mix-blend-mode:plus-darker">
<path fill-rule="evenodd" clip-rule="evenodd" d="M3.7427 1.22528C3.80348 1.17567 3.87325 1.14845 3.95171 1.1481C5.23995 1.14245 16.8921 1.08988 15.8238 1.04239C14.6932 0.992136 27.1229 0.701171 27.1229 0.701171C29.3842 0.80169 53.2834 19.4481 53.2834 19.4481C53.2834 19.4481 41.981 19.3633 41.2591 19.5547C40.5372 19.746 33.438 19.5446 29.2348 19.6612C25.0315 19.7778 17.1188 19.6364 17.2105 19.7677C17.2849 19.8744 9.3101 19.8781 6.3091 19.8757C5.57723 19.8751 4.8631 19.6533 4.25906 19.24L3.63965 18.8163C3.59161 18.7834 3.53673 18.7619 3.47915 18.7533C3.17394 18.708 3.04398 18.3395 3.25318 18.1127L3.29728 18.0649C3.3147 18.046 3.33382 18.0288 3.3544 18.0134L4.08905 17.4644C4.11146 17.4476 4.13701 17.4356 4.16417 17.4289C4.37192 17.3778 4.37747 17.0845 4.17181 17.0256L3.32869 16.7841C3.19937 16.7471 3.13871 16.5989 3.20495 16.4818C3.26178 16.3814 3.22593 16.2538 3.12507 16.1977L2.20896 15.6879C1.90627 15.5195 1.96809 15.067 2.30488 14.986L2.97328 14.8251C3.12994 14.7874 3.14468 14.5703 2.99455 14.5118C2.86601 14.4617 2.8525 14.2851 2.97192 14.216L3.0689 14.1599C3.19905 14.0846 3.21596 13.9034 3.10198 13.8053L2.82988 13.5711C2.72648 13.4822 2.66649 13.3529 2.66529 13.2165L2.66473 13.1534C2.66313 12.9736 2.74059 12.8022 2.87658 12.6847L3.09163 12.4987C3.25655 12.3561 3.45649 12.26 3.67088 12.2203L4.87963 11.9965L5.42208 11.8756C5.50116 11.858 5.5778 11.8308 5.65031 11.7947L5.88084 11.6798C5.99436 11.6233 6.07765 11.5201 6.10901 11.3972C6.16018 11.1967 6.06341 10.9878 5.87735 10.8971L5.50979 10.7181C5.22632 10.58 5.03118 10.3087 4.99041 9.99602L4.92194 9.47103C4.91 9.37945 4.86317 9.29601 4.79121 9.23811L4.661 9.13333C4.47444 8.9832 4.54904 8.68345 4.78421 8.63829L5.05495 8.5863C5.24033 8.5507 5.27026 8.29789 5.09832 8.21999C4.99023 8.17102 4.95127 8.03718 5.01619 7.93785L5.45801 7.26183C5.56967 7.09099 5.57577 6.87187 5.47378 6.69508C5.39608 6.56039 5.26422 6.46561 5.11179 6.43488L4.5318 6.31795C4.38325 6.288 4.23159 6.27641 4.08021 6.28343L1.98373 6.38066C1.83687 6.38747 1.71811 6.26249 1.7324 6.11617C1.7422 6.01578 1.68852 5.91988 1.59782 5.87575L1.37322 5.76646C1.27443 5.7184 1.22503 5.60583 1.25653 5.50059C1.29045 5.38726 1.23049 5.26708 1.11954 5.22604L0.68147 5.06398C0.606457 5.03623 0.556397 4.96501 0.555689 4.88504C0.555126 4.82159 0.585843 4.76194 0.637815 4.72555L0.775596 4.62907C0.816385 4.60051 0.861119 4.57805 0.908389 4.56239L1.60212 4.33266C1.62445 4.32527 1.63945 4.3043 1.63924 4.28078C1.63899 4.25328 1.61817 4.23033 1.59082 4.22742L0.598032 4.12191C0.500684 4.11156 0.494899 3.97202 0.591056 3.95366C0.670275 3.93852 0.68599 3.83196 0.614513 3.79461L0.504917 3.73733C0.44039 3.7036 0.454935 3.60734 0.526544 3.59418L0.626567 3.57581C0.688666 3.5644 0.689225 3.47559 0.627275 3.4634C0.564366 3.45102 0.566306 3.36039 0.629687 3.35071L1.27934 3.25154C1.37912 3.23631 1.39611 3.09966 1.30309 3.06047C1.24473 3.03588 1.22362 2.96394 1.25943 2.91171L1.26789 2.89938C1.28535 2.87392 1.31253 2.85678 1.34303 2.85199L2.10668 2.73208C2.28967 2.70335 2.46749 2.64809 2.63453 2.56805L2.83897 2.4701C2.88039 2.45025 2.91997 2.42679 2.95726 2.4L3.59071 1.94481C3.69326 1.87111 3.69704 1.71984 3.59829 1.64112C3.50331 1.56541 3.50248 1.42135 3.59658 1.34455L3.7427 1.22528ZM102.565 19.0115C96.6322 19.0145 91.0093 19.1075 90.3163 19.1194C90.2682 19.1202 90.2282 19.1211 90.1801 19.1223C89.2129 19.1468 77.7131 19.4342 77.9243 19.2298C78.1447 19.0164 70.0144 19.4585 65.6038 19.339C61.1933 19.2194 53.2834 19.4481 53.2834 19.4481C53.2834 19.4481 29.3842 0.80169 27.1229 0.701171C27.1229 0.701171 46.3371 0.772037 46.3366 0.711765C46.3361 0.651493 61.6614 0.636259 64.1693 0.493483C66.6772 0.350707 79.1128 0.722741 80.2417 0.574961C81.3706 0.427182 92.6716 0.301223 92.6725 0.395936C92.6731 0.468929 97.7469 0.363997 100.074 0.312032C100.818 0.29541 101.546 0.51196 102.161 0.932307L102.762 1.34378C102.81 1.37664 102.865 1.39817 102.923 1.40672C103.228 1.45208 103.358 1.82054 103.149 2.04735L103.104 2.0951C103.087 2.11398 103.068 2.13121 103.047 2.14658L102.313 2.69569C102.29 2.71243 102.265 2.72451 102.238 2.73118C102.03 2.78222 102.024 3.07551 102.23 3.13439L103.073 3.37586C103.202 3.4129 103.263 3.56113 103.197 3.67823C103.14 3.7787 103.176 3.90625 103.277 3.96238L104.193 4.47223C104.496 4.64065 104.434 5.09304 104.097 5.1741L103.428 5.335C103.272 5.3727 103.257 5.58976 103.407 5.64827C103.536 5.69836 103.549 5.87489 103.43 5.94397L103.333 6.00012C103.203 6.07543 103.186 6.25667 103.3 6.35475L103.572 6.58893C103.675 6.67791 103.735 6.80717 103.737 6.94358L103.737 7.00665C103.739 7.18642 103.661 7.35782 103.525 7.47541L103.31 7.66141C103.145 7.80402 102.945 7.90011 102.731 7.93981L101.522 8.16361L100.98 8.28446C100.901 8.30208 100.824 8.32925 100.751 8.36539L100.521 8.48023C100.407 8.5368 100.324 8.63997 100.293 8.76288C100.242 8.96342 100.338 9.17231 100.524 9.26294L100.892 9.44199C101.176 9.58009 101.371 9.85139 101.411 10.1641L101.48 10.689C101.492 10.7806 101.539 10.8641 101.611 10.922L101.741 11.0267C101.927 11.1769 101.853 11.4766 101.618 11.5218L101.347 11.5738C101.161 11.6094 101.132 11.8622 101.303 11.9401C101.412 11.9891 101.451 12.1229 101.386 12.2222L100.944 12.8983C100.832 13.0692 100.826 13.2882 100.928 13.465C101.006 13.5997 101.137 13.6945 101.29 13.7252L101.87 13.8421C102.019 13.8721 102.17 13.8836 102.322 13.8766L104.418 13.7794C104.565 13.7726 104.684 13.8976 104.669 14.0439C104.66 14.1443 104.713 14.2403 104.804 14.2844L105.028 14.3936C105.127 14.4417 105.177 14.5542 105.145 14.6595C105.111 14.7728 105.171 14.8929 105.282 14.934L105.72 15.0961C105.795 15.1238 105.845 15.195 105.846 15.275C105.847 15.3385 105.816 15.3981 105.764 15.4345L105.626 15.531C105.585 15.5595 105.541 15.582 105.493 15.5977L104.8 15.8274C104.777 15.8348 104.762 15.8557 104.763 15.8793C104.763 15.9068 104.784 15.9298 104.811 15.9327L105.804 16.0382C105.901 16.0485 105.907 16.188 105.811 16.2064C105.731 16.2215 105.716 16.3281 105.787 16.3654L105.897 16.4228C105.961 16.4565 105.947 16.5528 105.875 16.5659L105.775 16.5842C105.713 16.5957 105.713 16.6845 105.775 16.6967C105.837 16.7091 105.836 16.7997 105.772 16.8094L105.122 16.9085C105.023 16.9238 105.006 17.0604 105.099 17.0996C105.157 17.1242 105.178 17.1961 105.142 17.2483L105.134 17.2607C105.116 17.2862 105.089 17.3033 105.059 17.3081L104.295 17.4279C104.112 17.4567 103.934 17.512 103.767 17.5921L103.563 17.6901C103.521 17.7099 103.482 17.7333 103.445 17.7601L102.926 18.1327C102.766 18.2478 102.76 18.4842 102.914 18.6072C102.962 18.6456 103.018 18.6679 103.079 18.6716C103.803 18.7153 108.429 19.0084 102.565 19.0115Z" fill="#FCDEC2"/>
</g>
</svg>
